# xmcd
#
# Track frame offsets: 
#        150
#        9852
#        22852
#        35641
#        49143
#        63210
#        75221
#        86819
#        100647
#        110393
#        123716
#        133712
#        144483
#        155229
#        169686
#        182705
#        193902
#        208789
#        220115
#        234157
#        246896
#        258289
#        270413
#        282707
#        294549
#
# Disc length: 4099 seconds
#
# Revision: 0
# Processed by: cddbd v1.5.2PL0 Copyright (c) Steve Scherf et al.
# Submitted via: ExactAudioCopy v0.95b4
#
DISCID=63100119
DTITLE=Jusy Clay and Marie Knight - Blue Soul Belles
DYEAR=2001
DGENRE=Soul
TTITLE0=Let It Be Me
TTITLE1=I'm Up Tight
TTITLE2=My Arms Aren't Strong Enough
TTITLE3=That's All
TTITLE4=Lonely People Do Foolish Things
TTITLE5=I'm Comin' Home
TTITLE6=Haven't gor What It Take
TTITLE7=The Way You Look Tonight
TTITLE8=You Busted My Arms
TTITLE9=He's The Kind Of Guy
TTITLE10=Your Kind Of Lovin'
TTITLE11=I want You
TTITLE12=Upset My Heart [Got Me So Upset]
TTITLE13=Turn Back The Time
TTITLE14=That's All
TTITLE15=Cry Me A River
TTITLE16=Comes The Night
TTITLE17=That's No Way To Treat A Girl
TTITLE18=Say It Again
TTITLE19=A Little To Lonely
TTITLE20=You Lie So Well
TTITLE21=Hey, Tell Me Boy
TTITLE22=That's No Way To Treat A Girl
TTITLE23=Say It Again
TTITLE24=You Lie So Well
EXTD=
EXTT0=
EXTT1=
EXTT2=
EXTT3=
EXTT4=
EXTT5=
EXTT6=
EXTT7=
EXTT8=
EXTT9=
EXTT10=
EXTT11=
EXTT12=
EXTT13=
EXTT14=
EXTT15=
EXTT16=
EXTT17=
EXTT18=
EXTT19=
EXTT20=
EXTT21=
EXTT22=
EXTT23=
EXTT24=
PLAYORDER=
